<svg version="1.1" id="Layer_1" xmlns="http://www.w3.org/2000/svg" xmlns:xlink="http://www.w3.org/1999/xlink" x="0px" y="0px"
	 width="100%" viewBox="0 0 405 405" enable-background="new 0 0 405 405" xml:space="preserve">
<path fill="#010101" opacity="1.000000" stroke="none" 
	d="
M192.000000,406.000000 
	C128.019592,406.000000 64.539192,406.000000 1.029392,406.000000 
	C1.029392,271.061249 1.029392,136.122513 1.029392,1.091878 
	C135.897034,1.091878 270.794159,1.091878 405.845642,1.091878 
	C405.845642,135.999863 405.845642,270.999908 405.845642,406.000000 
	C334.789246,406.000000 263.644623,406.000000 192.000000,406.000000 
M48.945595,254.052338 
	C63.418053,254.335968 77.890030,254.660019 92.363808,254.833054 
	C93.638092,254.848282 94.924187,253.875626 96.204796,253.361801 
	C96.017860,253.036331 95.830933,252.710876 95.643997,252.385406 
	C79.840881,252.385406 64.037758,252.385406 47.320858,252.040649 
	C38.169991,252.040649 29.019121,252.040649 19.868252,252.040649 
	C19.875132,252.672165 19.882011,253.303680 19.888893,253.935196 
	C29.277100,253.935196 38.665306,253.935196 48.945595,254.052338 
M357.223663,252.779282 
	C339.181213,252.779282 321.138794,252.779282 301.826080,252.779282 
	C303.585968,253.741257 304.649200,254.834778 305.693268,254.816757 
	C323.100128,254.516541 340.504578,254.077164 358.778015,253.551041 
	C363.403412,253.160233 368.028839,252.769424 372.654236,252.378632 
	C372.673248,252.667542 372.692261,252.956451 372.711273,253.245361 
	C367.805664,253.245361 362.900055,253.245361 357.223663,252.779282 
M40.789509,133.012222 
	C36.650547,132.372284 37.270420,135.254959 37.275887,137.725159 
	C37.337406,165.522766 37.387478,193.320404 37.452244,221.118011 
	C37.454891,222.254593 37.572418,223.390915 37.644161,224.664825 
	C43.253357,224.664825 48.614357,224.664825 53.584023,224.664825 
	C53.584023,204.017868 53.584023,183.702225 53.584023,162.764542 
	C75.410378,182.563889 96.815918,202.016205 118.290115,221.392426 
	C119.924042,222.866730 121.994911,224.718414 123.947922,224.824432 
	C131.382233,225.228073 138.851532,224.987198 146.125702,224.987198 
	C146.462555,224.342758 146.740265,224.059418 146.740402,223.775925 
	C146.750107,202.626343 146.752777,181.476715 146.683609,160.327301 
	C146.680115,159.260300 146.323151,157.956497 145.654282,157.166275 
	C138.747162,149.006134 131.741882,140.929108 124.823105,132.897644 
	C124.823105,151.562286 124.823105,169.845551 124.823105,188.390152 
	C123.904076,187.662308 122.876686,186.928848 121.939323,186.094284 
	C107.026039,172.816956 91.399834,160.236313 77.459412,146.004745 
	C67.140617,135.470459 56.034496,130.790588 40.789509,133.012222 
M282.259216,154.782928 
	C289.489014,147.042664 298.711426,143.836655 308.991913,143.142929 
	C327.059143,141.923767 343.992676,145.653793 359.540802,155.174835 
	C363.283966,144.463120 362.409912,142.264740 352.638245,138.456467 
	C348.778687,136.952286 344.836945,135.556641 340.819031,134.577789 
	C316.000305,128.531464 291.415344,127.894951 267.632324,138.879761 
	C255.446228,144.508224 246.630844,153.542374 242.903290,166.684937 
	C235.878967,191.451355 248.514038,214.675186 273.371033,223.220169 
	C288.416077,228.392151 303.874420,229.526184 319.613281,228.035660 
	C332.776703,226.789047 345.479370,223.884827 357.464661,218.083420 
	C360.653809,216.539734 362.439484,214.722488 361.919922,210.921539 
	C361.568573,208.351212 361.852905,205.694016 361.852905,202.326447 
	C359.913605,203.335876 358.500061,204.048859 357.107117,204.800125 
	C340.796265,213.597214 323.642639,218.666214 304.923218,215.955017 
	C291.502472,214.011261 280.330902,208.220963 275.176117,194.867691 
	C269.665161,180.591751 271.592163,167.154770 282.259216,154.782928 
M221.740433,153.218399 
	C215.841995,160.148056 209.943558,167.077698 203.756714,174.346191 
	C193.634567,161.365616 183.767197,148.664886 173.817871,136.028656 
	C172.871399,134.826599 171.430649,133.200180 170.188339,133.172699 
	C159.814880,132.943176 149.434158,133.042328 138.266983,133.042328 
	C139.815659,135.165283 140.719299,136.510635 141.728607,137.771393 
	C154.097717,153.222092 166.402039,168.725937 178.919785,184.055435 
	C182.017960,187.849533 183.615143,191.620239 183.383865,196.670609 
	C182.959915,205.927597 183.263077,215.217911 183.263077,224.718430 
	C193.090027,224.718430 202.598465,224.718430 212.286148,224.718430 
	C212.286148,213.060898 212.141663,201.747177 212.402374,190.442795 
	C212.457611,188.048065 213.436386,185.233170 214.941452,183.388367 
	C222.194977,174.497437 229.507263,165.624161 237.313843,157.223328 
	C244.908936,149.050095 250.595291,138.969818 262.023590,133.012238 
	C254.552078,133.012238 248.386139,132.815842 242.246445,133.130966 
	C240.385025,133.226501 238.122864,134.300491 236.857300,135.674957 
	C231.791489,141.176636 227.045380,146.972687 221.740433,153.218399 
M268.075134,262.621033 
	C270.693115,262.781158 273.350616,263.301849 275.920227,263.020386 
	C280.208435,262.550568 283.321472,260.278198 284.149170,255.731445 
	C285.079437,250.621552 282.945221,246.869629 278.219940,245.123169 
	C272.745056,243.099625 265.932068,244.934952 263.574371,249.068466 
	C260.970795,253.633057 262.325531,258.324951 268.075134,262.621033 
M220.437469,262.358856 
	C225.164108,260.685974 227.288147,257.367645 226.535751,252.394653 
	C225.756439,247.243759 222.130722,245.240509 217.448868,244.886993 
	C214.080414,244.632645 210.677261,244.837494 207.248108,244.837494 
	C207.248108,251.204773 207.248108,256.957550 207.248108,263.252930 
	C211.501740,263.059601 215.589554,262.873810 220.437469,262.358856 
M113.624550,245.869141 
	C110.632431,250.153534 111.371513,252.949493 116.054977,254.541580 
	C117.770119,255.124619 119.713577,255.098923 121.358292,255.804520 
	C122.491898,256.290833 123.290993,257.556915 124.239586,258.474518 
	C123.098900,259.253876 121.943100,260.706055 120.820480,260.680878 
	C117.958420,260.616577 115.111176,259.892731 111.912956,259.377197 
	C111.912956,259.858856 111.775818,260.971283 111.933228,261.014648 
	C114.985085,261.855530 118.109001,263.260712 121.138687,263.095337 
	C123.569954,262.962616 126.654556,261.465851 128.094162,259.554047 
	C130.383530,256.513794 127.813072,253.284119 122.920647,252.111816 
	C120.461380,251.522552 118.065788,250.667496 115.641403,249.932632 
	C115.776085,249.249512 115.910767,248.566391 116.045448,247.883270 
	C119.686180,247.883270 123.326912,247.883270 126.894890,247.883270 
	C126.056595,244.193390 121.424400,243.201279 113.624550,245.869141 
M186.321762,259.402771 
	C179.783417,262.570251 177.029877,260.896332 177.070786,253.783188 
	C177.081284,251.955826 176.957108,250.118515 177.106522,248.303192 
	C177.374725,245.044769 176.147659,243.984161 172.750275,245.383636 
	C172.750275,248.401382 172.702469,251.540283 172.760361,254.677231 
	C172.876007,260.942566 174.903336,263.010010 181.095657,263.291321 
	C188.733292,263.638336 191.256668,261.212555 191.299698,253.472595 
	C191.311691,251.313004 191.550781,249.113190 191.204422,247.011124 
	C191.038788,246.005890 189.748672,245.185944 188.208542,243.403091 
	C187.674545,249.607239 187.282074,254.167175 186.321762,259.402771 
M154.944168,247.294662 
	C156.307358,247.107513 157.670547,246.920364 159.033737,246.733215 
	C158.970749,246.092682 158.907761,245.452148 158.844788,244.811615 
	C152.656876,244.773849 146.461197,244.503891 140.290207,244.972534 
	C140.292206,245.647659 140.294205,246.322784 140.296204,246.997910 
	C142.637543,247.149673 144.978897,247.301437 147.783463,247.483231 
	C147.783463,252.769913 147.783463,257.807098 147.783463,262.844299 
	C148.292679,263.099365 148.801895,263.354431 149.311111,263.609467 
	C150.166290,262.468658 151.621063,261.396362 151.760803,260.173737 
	C152.134552,256.903900 151.785431,253.555756 152.070648,250.268845 
	C152.160767,249.230240 153.347748,248.286819 154.944168,247.294662 
M243.809631,244.727951 
	C243.309250,246.765152 242.496887,248.783966 242.375427,250.843521 
	C242.144440,254.760498 242.308487,258.700775 242.308487,262.765076 
	C243.948166,262.765076 245.290894,262.765076 246.913177,262.765076 
	C246.913177,257.414886 247.033340,252.460449 246.809311,247.521637 
	C246.765808,246.562271 245.381332,245.663757 243.809631,244.727951 
z"/>
<path fill="#F8F8F8" opacity="1.000000" stroke="none" 
	d="
M41.261948,133.012482 
	C56.034496,130.790588 67.140617,135.470459 77.459412,146.004745 
	C91.399834,160.236313 107.026039,172.816956 121.939323,186.094284 
	C122.876686,186.928848 123.904076,187.662308 124.823105,188.390152 
	C124.823105,169.845551 124.823105,151.562286 124.823105,132.897644 
	C131.741882,140.929108 138.747162,149.006134 145.654282,157.166275 
	C146.323151,157.956497 146.680115,159.260300 146.683609,160.327301 
	C146.752777,181.476715 146.750107,202.626343 146.740402,223.775925 
	C146.740265,224.059418 146.462555,224.342758 146.125702,224.987198 
	C138.851532,224.987198 131.382233,225.228073 123.947922,224.824432 
	C121.994911,224.718414 119.924042,222.866730 118.290115,221.392426 
	C96.815918,202.016205 75.410378,182.563889 53.584023,162.764542 
	C53.584023,183.702225 53.584023,204.017868 53.584023,224.664825 
	C48.614357,224.664825 43.253357,224.664825 37.644161,224.664825 
	C37.572418,223.390915 37.454891,222.254593 37.452244,221.118011 
	C37.387478,193.320404 37.337406,165.522766 37.275887,137.725159 
	C37.270420,135.254959 36.650547,132.372284 41.261948,133.012482 
z"/>
<path fill="#F9F9F9" opacity="1.000000" stroke="none" 
	d="
M282.001648,155.031647 
	C271.592163,167.154770 269.665161,180.591751 275.176117,194.867691 
	C280.330902,208.220963 291.502472,214.011261 304.923218,215.955017 
	C323.642639,218.666214 340.796265,213.597214 357.107117,204.800125 
	C358.500061,204.048859 359.913605,203.335876 361.852905,202.326447 
	C361.852905,205.694016 361.568573,208.351212 361.919922,210.921539 
	C362.439484,214.722488 360.653809,216.539734 357.464661,218.083420 
	C345.479370,223.884827 332.776703,226.789047 319.613281,228.035660 
	C303.874420,229.526184 288.416077,228.392151 273.371033,223.220169 
	C248.514038,214.675186 235.878967,191.451355 242.903290,166.684937 
	C246.630844,153.542374 255.446228,144.508224 267.632324,138.879761 
	C291.415344,127.894951 316.000305,128.531464 340.819031,134.577789 
	C344.836945,135.556641 348.778687,136.952286 352.638245,138.456467 
	C362.409912,142.264740 363.283966,144.463120 359.540802,155.174835 
	C343.992676,145.653793 327.059143,141.923767 308.991913,143.142929 
	C298.711426,143.836655 289.489014,147.042664 282.001648,155.031647 
z"/>
<path fill="#FAFAFA" opacity="1.000000" stroke="none" 
	d="
M221.960724,152.939117 
	C227.045380,146.972687 231.791489,141.176636 236.857300,135.674957 
	C238.122864,134.300491 240.385025,133.226501 242.246445,133.130966 
	C248.386139,132.815842 254.552078,133.012238 262.023590,133.012238 
	C250.595291,138.969818 244.908936,149.050095 237.313843,157.223328 
	C229.507263,165.624161 222.194977,174.497437 214.941452,183.388367 
	C213.436386,185.233170 212.457611,188.048065 212.402374,190.442795 
	C212.141663,201.747177 212.286148,213.060898 212.286148,224.718430 
	C202.598465,224.718430 193.090027,224.718430 183.263077,224.718430 
	C183.263077,215.217911 182.959915,205.927597 183.383865,196.670609 
	C183.615143,191.620239 182.017960,187.849533 178.919785,184.055435 
	C166.402039,168.725937 154.097717,153.222092 141.728607,137.771393 
	C140.719299,136.510635 139.815659,135.165283 138.266983,133.042328 
	C149.434158,133.042328 159.814880,132.943176 170.188339,133.172699 
	C171.430649,133.200180 172.871399,134.826599 173.817871,136.028656 
	C183.767197,148.664886 193.634567,161.365616 203.756714,174.346191 
	C209.943558,167.077698 215.841995,160.148056 221.960724,152.939117 
z"/>
<path fill="#E4E4E4" opacity="1.000000" stroke="none" 
	d="
M267.734375,262.458588 
	C262.325531,258.324951 260.970795,253.633057 263.574371,249.068466 
	C265.932068,244.934952 272.745056,243.099625 278.219940,245.123169 
	C282.945221,246.869629 285.079437,250.621552 284.149170,255.731445 
	C283.321472,260.278198 280.208435,262.550568 275.920227,263.020386 
	C273.350616,263.301849 270.693115,262.781158 267.734375,262.458588 
M272.693512,247.003998 
	C268.914673,247.417068 266.704712,249.814987 267.111115,253.303238 
	C267.392548,255.718506 268.859497,258.741638 270.779968,260.051514 
	C273.950592,262.214081 278.377747,259.980743 279.605865,256.423340 
	C281.337128,251.408447 279.294647,248.227463 272.693512,247.003998 
z"/>
<path fill="#E8E8E8" opacity="1.000000" stroke="none" 
	d="
M220.057434,262.523438 
	C215.589554,262.873810 211.501740,263.059601 207.248108,263.252930 
	C207.248108,256.957550 207.248108,251.204773 207.248108,244.837494 
	C210.677261,244.837494 214.080414,244.632645 217.448868,244.886993 
	C222.130722,245.240509 225.756439,247.243759 226.535751,252.394653 
	C227.288147,257.367645 225.164108,260.685974 220.057434,262.523438 
M218.128937,259.962189 
	C222.406128,258.164581 223.134918,254.510254 221.668228,250.924454 
	C219.771744,246.287933 215.494217,247.154236 211.554489,247.632141 
	C211.554489,252.167160 211.554489,256.330505 211.554489,260.803986 
	C213.777451,260.568726 215.562378,260.379822 218.128937,259.962189 
z"/>
<path fill="#E2E2E2" opacity="1.000000" stroke="none" 
	d="
M113.924896,245.645599 
	C121.424400,243.201279 126.056595,244.193390 126.894890,247.883270 
	C123.326912,247.883270 119.686180,247.883270 116.045448,247.883270 
	C115.910767,248.566391 115.776085,249.249512 115.641403,249.932632 
	C118.065788,250.667496 120.461380,251.522552 122.920647,252.111816 
	C127.813072,253.284119 130.383530,256.513794 128.094162,259.554047 
	C126.654556,261.465851 123.569954,262.962616 121.138687,263.095337 
	C118.109001,263.260712 114.985085,261.855530 111.933228,261.014648 
	C111.775818,260.971283 111.912956,259.858856 111.912956,259.377197 
	C115.111176,259.892731 117.958420,260.616577 120.820480,260.680878 
	C121.943100,260.706055 123.098900,259.253876 124.239594,258.474518 
	C123.290993,257.556915 122.491898,256.290833 121.358292,255.804520 
	C119.713577,255.098923 117.770119,255.124619 116.054977,254.541580 
	C111.371513,252.949493 110.632431,250.153534 113.924896,245.645599 
z"/>
<path fill="#EFEFEF" opacity="1.000000" stroke="none" 
	d="
M186.605682,259.064941 
	C187.282074,254.167175 187.674545,249.607239 188.208542,243.403091 
	C189.748672,245.185944 191.038788,246.005890 191.204422,247.011124 
	C191.550781,249.113190 191.311691,251.313004 191.299698,253.472595 
	C191.256668,261.212555 188.733292,263.638336 181.095657,263.291321 
	C174.903336,263.010010 172.876007,260.942566 172.760361,254.677231 
	C172.702469,251.540283 172.750275,248.401382 172.750275,245.383636 
	C176.147659,243.984161 177.374725,245.044769 177.106522,248.303192 
	C176.957108,250.118515 177.081284,251.955826 177.070786,253.783188 
	C177.029877,260.896332 179.783417,262.570251 186.605682,259.064941 
z"/>
<path fill="#E7E7E7" opacity="1.000000" stroke="none" 
	d="
M357.909546,253.668808 
	C340.504578,254.077164 323.100128,254.516541 305.693268,254.816757 
	C304.649200,254.834778 303.585968,253.741257 301.826080,252.779282 
	C321.138794,252.779282 339.181213,252.779282 357.515015,253.103592 
	C357.806396,253.427902 357.909546,253.668808 357.909546,253.668808 
z"/>
<path fill="#E7E7E7" opacity="1.000000" stroke="none" 
	d="
M48.234642,252.385406 
	C64.037758,252.385406 79.840881,252.385406 95.643997,252.385406 
	C95.830933,252.710876 96.017860,253.036331 96.204796,253.361801 
	C94.924187,253.875626 93.638092,254.848282 92.363808,254.833054 
	C77.890030,254.660019 63.418053,254.335968 48.497742,253.730270 
	C48.111477,253.067276 48.173061,252.726334 48.234642,252.385406 
z"/>
<path fill="#F0F0F0" opacity="1.000000" stroke="none" 
	d="
M154.488464,247.297256 
	C153.347748,248.286819 152.160767,249.230240 152.070648,250.268845 
	C151.785431,253.555756 152.134552,256.903900 151.760803,260.173737 
	C151.621063,261.396362 150.166290,262.468658 149.311111,263.609467 
	C148.801895,263.354431 148.292679,263.099365 147.783463,262.844299 
	C147.783463,257.807098 147.783463,252.769913 147.783463,247.483231 
	C144.978897,247.301437 142.637543,247.149673 140.296204,246.997910 
	C140.294205,246.322784 140.292206,245.647659 140.290207,244.972534 
	C146.461197,244.503891 152.656876,244.773849 158.844788,244.811615 
	C158.907761,245.452148 158.970749,246.092682 159.033737,246.733215 
	C157.670547,246.920364 156.307358,247.107513 154.488464,247.297256 
z"/>
<path fill="#D1D1D1" opacity="1.000000" stroke="none" 
	d="
M244.212524,244.732574 
	C245.381332,245.663757 246.765808,246.562271 246.809311,247.521637 
	C247.033340,252.460449 246.913177,257.414886 246.913177,262.765076 
	C245.290894,262.765076 243.948166,262.765076 242.308487,262.765076 
	C242.308487,258.700775 242.144440,254.760498 242.375427,250.843521 
	C242.496887,248.783966 243.309250,246.765152 244.212524,244.732574 
z"/>
<path fill="#7A7A7A" opacity="1.000000" stroke="none" 
	d="
M47.777748,252.213028 
	C48.173061,252.726334 48.111477,253.067276 48.051704,253.671692 
	C38.665306,253.935196 29.277100,253.935196 19.888893,253.935196 
	C19.882011,253.303680 19.875132,252.672165 19.868252,252.040649 
	C29.019121,252.040649 38.169991,252.040649 47.777748,252.213028 
z"/>
<path fill="#B2B2B2" opacity="1.000000" stroke="none" 
	d="
M358.343781,253.609924 
	C357.909546,253.668808 357.806396,253.427902 357.900421,253.336639 
	C362.900055,253.245361 367.805664,253.245361 372.711273,253.245361 
	C372.692261,252.956451 372.673248,252.667542 372.654236,252.378632 
	C368.028839,252.769424 363.403412,253.160233 358.343781,253.609924 
z"/>
<path fill="#080808" opacity="1.000000" stroke="none" 
	d="
M273.094757,246.955994 
	C279.294647,248.227463 281.337128,251.408447 279.605865,256.423340 
	C278.377747,259.980743 273.950592,262.214081 270.779968,260.051514 
	C268.859497,258.741638 267.392548,255.718506 267.111115,253.303238 
	C266.704712,249.814987 268.914673,247.417068 273.094757,246.955994 
z"/>
<path fill="#111111" opacity="1.000000" stroke="none" 
	d="
M217.738113,260.076538 
	C215.562378,260.379822 213.777451,260.568726 211.554489,260.803986 
	C211.554489,256.330505 211.554489,252.167160 211.554489,247.632141 
	C215.494217,247.154236 219.771744,246.287933 221.668228,250.924454 
	C223.134918,254.510254 222.406128,258.164581 217.738113,260.076538 
z"/>
</svg>