<svg xmlns="http://www.w3.org/2000/svg" xml:space="preserve" viewBox="0 0 405 405"><path fill="#010101" d="M192 406H1.03V1.092h404.816V406zM48.946 254.052c14.472.284 28.944.608 43.418.781 1.274.015 2.56-.957 3.84-1.471l-.56-.977c-15.803 0-31.606 0-48.323-.344H19.868l.02 1.894c9.39 0 18.777 0 29.058.117m308.278-1.273h-55.398c1.76.962 2.823 2.056 3.867 2.038 17.407-.3 34.812-.74 53.085-1.266l13.876-1.172.057.866c-4.905 0-9.81 0-15.487-.466M40.79 133.012c-4.14-.64-3.52 2.243-3.514 4.713.061 27.798.111 55.595.176 83.393.003 1.137.12 2.273.192 3.547h15.94v-61.9c21.826 19.799 43.232 39.251 64.706 58.627 1.634 1.475 3.705 3.326 5.658 3.432 7.434.404 14.904.163 22.178.163.337-.644.614-.928.614-1.211.01-21.15.013-42.3-.056-63.449-.004-1.067-.36-2.37-1.03-3.16-6.907-8.16-13.912-16.238-20.83-24.27v55.493c-.92-.728-1.947-1.461-2.885-2.296-14.913-13.277-30.54-25.858-44.48-40.09-10.318-10.534-21.425-15.213-36.67-12.992m241.47 21.77c7.23-7.74 16.452-10.945 26.733-11.64 18.067-1.218 35 2.512 50.549 12.033 3.743-10.712 2.869-12.91-6.903-16.719-3.86-1.504-7.801-2.9-11.819-3.878-24.819-6.047-49.404-6.683-73.187 4.302-12.186 5.628-21.001 14.662-24.729 27.805-7.024 24.766 5.611 47.99 30.468 56.535 15.045 5.172 30.503 6.306 46.242 4.816 13.164-1.247 25.866-4.151 37.852-9.953 3.189-1.543 4.974-3.36 4.455-7.161-.351-2.57-.067-5.228-.067-8.596-1.94 1.01-3.353 1.723-4.746 2.474-16.31 8.797-33.464 13.866-52.184 11.155-13.42-1.944-24.592-7.734-29.747-21.087-5.51-14.276-3.584-27.713 7.083-40.085m-60.519-1.565-17.983 21.128c-10.122-12.98-19.99-25.681-29.94-38.317-.946-1.202-2.386-2.829-3.629-2.856-10.373-.23-20.754-.13-31.921-.13 1.549 2.122 2.452 3.468 3.462 4.728 12.369 15.451 24.673 30.955 37.19 46.284 3.099 3.795 4.696 7.565 4.465 12.616-.424 9.257-.12 18.547-.12 28.047h29.022c0-11.657-.144-22.97.116-34.275.056-2.395 1.034-5.21 2.54-7.055 7.253-8.89 14.565-17.764 22.372-26.165 7.595-8.173 13.281-18.253 24.71-24.21-7.472 0-13.638-.197-19.778.118-1.861.096-4.123 1.17-5.389 2.544-5.066 5.502-9.812 11.298-15.117 17.543m46.335 109.403c2.618.16 5.276.68 7.845.4 4.288-.47 7.401-2.743 8.23-7.29.93-5.11-1.205-8.861-5.93-10.608-5.475-2.023-12.288-.188-14.646 3.945-2.603 4.565-1.248 9.257 4.501 13.553m-47.638-.262c4.727-1.673 6.851-4.991 6.099-9.964-.78-5.151-4.405-7.154-9.087-7.508-3.369-.254-6.772-.05-10.2-.05v18.416c4.253-.193 8.34-.38 13.188-.894m-106.812-16.49c-2.993 4.285-2.253 7.08 2.43 8.673 1.715.583 3.659.557 5.303 1.263 1.134.486 1.933 1.752 2.882 2.67-1.141.779-2.297 2.231-3.42 2.206-2.862-.064-5.709-.788-8.907-1.304 0 .482-.137 1.594.02 1.638 3.052.84 6.176 2.246 9.206 2.08 2.431-.132 5.516-1.63 6.955-3.541 2.29-3.04-.28-6.27-5.173-7.442-2.46-.59-4.855-1.445-7.28-2.18l.404-2.049h10.85c-.838-3.69-5.47-4.682-13.27-2.014m72.697 13.534c-6.539 3.167-9.292 1.493-9.251-5.62.01-1.827-.114-3.664.036-5.48.268-3.258-.96-4.319-4.357-2.92 0 3.018-.048 6.157.01 9.294.116 6.266 2.143 8.333 8.336 8.614 7.637.347 10.16-2.078 10.204-9.818.012-2.16.25-4.36-.096-6.462-.165-1.005-1.455-1.825-2.995-3.608-.534 6.204-.927 10.764-1.887 16m-31.378-12.108 4.09-.562-.19-1.921c-6.187-.038-12.383-.308-18.554.16l.006 2.026 7.487.485v15.361l1.528.765c.855-1.14 2.31-2.213 2.45-3.435.374-3.27.024-6.618.31-9.905.09-1.039 1.277-1.982 2.873-2.974m88.866-2.567c-.5 2.037-1.313 4.056-1.435 6.116-.23 3.916-.067 7.857-.067 11.921h4.605c0-5.35.12-10.305-.104-15.243-.043-.96-1.428-1.858-3-2.794"/><path fill="#f8f8f8" d="M41.262 133.012c14.772-2.221 25.879 2.458 36.197 12.993 13.94 14.231 29.567 26.812 44.48 40.09.938.834 1.965 1.567 2.884 2.295v-55.492c6.919 8.031 13.924 16.108 20.831 24.268.67.79 1.026 2.094 1.03 3.161.069 21.15.066 42.3.056 63.449 0 .283-.277.567-.614 1.211-7.274 0-14.744.241-22.178-.163-1.953-.106-4.024-1.957-5.658-3.432-21.474-19.376-42.88-38.828-64.706-58.627v61.9h-15.94c-.072-1.274-.19-2.41-.192-3.547-.065-27.798-.115-55.595-.176-83.393-.006-2.47-.625-5.353 3.986-4.713"/><path fill="#f9f9f9" d="M282.002 155.032c-10.41 12.123-12.337 25.56-6.826 39.836 5.155 13.353 16.326 19.143 29.747 21.087 18.72 2.711 35.873-2.358 52.184-11.155 1.393-.751 2.807-1.464 4.746-2.474 0 3.368-.284 6.025.067 8.596.52 3.8-1.266 5.618-4.455 7.161-11.986 5.802-24.688 8.706-37.852 9.953-15.739 1.49-31.197.356-46.242-4.816-24.857-8.545-37.492-31.769-30.468-56.535 3.728-13.143 12.543-22.177 24.73-27.805 23.782-10.985 48.367-10.349 73.186-4.302 4.018.979 7.96 2.374 11.82 3.878 9.77 3.809 10.645 6.007 6.902 16.719-15.548-9.521-32.482-13.251-50.55-12.032-10.28.694-19.502 3.9-26.99 11.889"/><path fill="#fafafa" d="M221.96 152.94c5.085-5.967 9.831-11.763 14.897-17.265 1.266-1.375 3.528-2.448 5.39-2.544 6.14-.315 12.305-.119 19.777-.119-11.429 5.958-17.115 16.038-24.71 24.211-7.807 8.401-15.119 17.274-22.373 26.165-1.505 1.845-2.483 4.66-2.539 7.055-.26 11.304-.116 22.618-.116 34.275h-29.023c0-9.5-.303-18.79.12-28.047.232-5.05-1.365-8.821-4.463-12.616-12.518-15.33-24.822-30.833-37.191-46.284-1.01-1.26-1.913-2.606-3.462-4.729 11.167 0 21.548-.099 31.921.13 1.243.028 2.683 1.655 3.63 2.857 9.95 12.636 19.817 25.337 29.939 38.317 6.187-7.268 12.085-14.198 18.204-21.407"/><path fill="#e4e4e4" d="M267.734 262.459c-5.408-4.134-6.763-8.826-4.16-13.39 2.358-4.134 9.171-5.97 14.646-3.946 4.725 1.747 6.86 5.499 5.93 10.608-.829 4.547-3.942 6.82-8.23 7.29-2.57.28-5.227-.24-8.186-.562m4.96-15.455c-3.78.413-5.99 2.811-5.583 6.3.282 2.415 1.748 5.438 3.669 6.748 3.17 2.162 7.598-.071 8.826-3.629 1.731-5.015-.311-8.196-6.912-9.419"/><path fill="#e8e8e8" d="M220.057 262.523c-4.467.35-8.555.537-12.809.73v-18.416c3.43 0 6.832-.204 10.2.05 4.683.354 8.308 2.357 9.088 7.508.752 4.973-1.372 8.291-6.479 10.128m-1.928-2.56c4.277-1.798 5.006-5.453 3.54-9.039-1.897-4.636-6.175-3.77-10.115-3.292v13.172c2.223-.235 4.008-.424 6.575-.842"/><path fill="#e2e2e2" d="M113.925 245.646c7.5-2.445 12.132-1.453 12.97 2.237h-10.85l-.404 2.05c2.425.734 4.82 1.59 7.28 2.179 4.892 1.172 7.463 4.402 5.173 7.442-1.44 1.912-4.524 3.409-6.955 3.541-3.03.166-6.154-1.24-9.206-2.08-.157-.044-.02-1.156-.02-1.638 3.198.516 6.045 1.24 8.907 1.304 1.123.025 2.279-1.427 3.42-2.206-.949-.918-1.748-2.184-2.882-2.67-1.644-.706-3.588-.68-5.303-1.263-4.683-1.593-5.423-4.388-2.13-8.896"/><path fill="#efefef" d="M186.606 259.065c.676-4.898 1.069-9.458 1.603-15.662 1.54 1.783 2.83 2.603 2.995 3.608.347 2.102.108 4.302.096 6.462-.043 7.74-2.567 10.165-10.204 9.818-6.193-.281-8.22-2.348-8.336-8.614-.058-3.137-.01-6.276-.01-9.293 3.398-1.4 4.625-.34 4.357 2.92-.15 1.815-.026 3.652-.036 5.48-.041 7.112 2.712 8.786 9.535 5.28"/><path fill="#e7e7e7" d="M357.91 253.669c-17.405.408-34.81.848-52.217 1.148-1.044.018-2.107-1.076-3.867-2.038 19.313 0 37.355 0 55.689.325.291.324.395.565.395.565m-309.675-1.284h47.409l.56.977c-1.28.514-2.566 1.486-3.84 1.471-14.474-.173-28.946-.497-43.866-1.103-.387-.663-.325-1.004-.263-1.345"/><path fill="#f0f0f0" d="M154.488 247.297c-1.14.99-2.327 1.933-2.417 2.972-.286 3.287.064 6.635-.31 9.905-.14 1.222-1.595 2.295-2.45 3.435l-1.528-.765v-15.36l-7.487-.486-.006-2.025c6.171-.47 12.367-.2 18.555-.161l.189 1.921c-1.363.187-2.727.375-4.546.564"/><path fill="#d1d1d1" d="M244.213 244.733c1.168.93 2.553 1.83 2.596 2.789.224 4.938.104 9.893.104 15.243h-4.605c0-4.064-.164-8.005.067-11.921.122-2.06.934-4.079 1.838-6.111"/><path fill="#7a7a7a" d="M47.778 252.213c.395.513.333.854.274 1.459-9.387.263-18.775.263-28.163.263l-.02-1.894c9.15 0 18.301 0 27.909.172"/><path fill="#b2b2b2" d="M358.344 253.61c-.434.059-.538-.182-.444-.273 5-.092 9.906-.092 14.811-.092l-.057-.866c-4.625.39-9.25.781-14.31 1.23"/><path fill="#080808" d="M273.095 246.956c6.2 1.271 8.242 4.452 6.51 9.467-1.227 3.558-5.654 5.791-8.825 3.629-1.92-1.31-3.387-4.333-3.669-6.749-.406-3.488 1.804-5.886 5.984-6.347"/><path fill="#111" d="M217.738 260.077c-2.176.303-3.96.492-6.184.727v-13.172c3.94-.478 8.218-1.344 10.114 3.292 1.467 3.586.738 7.24-3.93 9.153"/></svg>